<?xml version="1.0" standalone="no"?>
<!DOCTYPE svg PUBLIC "-//W3C//DTD SVG 20010904//EN"
"http://www.w3.org/TR/2001/REC-SVG-20010904/DTD/svg10.dtd">
<svg version="1.0" xmlns="http://www.w3.org/2000/svg"
width="152.000000pt" height="152.000000pt" viewBox="0 0 152.000000 152.000000"
preserveAspectRatio="xMidYMid meet">
<metadata>
Created by potrace 1.14, written by Peter Selinger 2001-2017
</metadata>
<g transform="translate(0.000000,152.000000) scale(0.100000,-0.100000)"
fill="#000000" stroke="none">
<path d="M0 760 l0 -760 760 0 760 0 0 760 0 760 -760 0 -760 0 0 -760z m905
496 c58 -15 120 -41 152 -61 l22 -15 -40 -87 c-22 -48 -42 -89 -44 -92 -3 -2
-31 10 -62 27 -83 44 -139 50 -182 20 -45 -30 -55 -49 -47 -82 9 -37 51 -59
168 -91 112 -31 148 -52 195 -113 42 -56 56 -111 50 -197 -6 -86 -33 -150 -88
-210 -69 -75 -149 -105 -280 -105 -112 0 -236 44 -323 115 l-29 23 63 101 62
102 52 -49 c62 -59 82 -70 142 -81 85 -16 154 27 154 95 0 54 -45 88 -160 124
-175 54 -237 109 -260 229 -28 150 82 315 235 352 50 12 167 10 220 -5z"/>
</g>
</svg>
